<svg width="1337" height="200" viewBox="0 0 1337 200" fill="none" xmlns="http://www.w3.org/2000/svg">
<path d="M199.51 169.321H177.675C176.508 169.321 175.441 168.662 174.919 167.618L167.942 153.665L182.305 124.939L202.266 164.861C203.291 166.91 201.801 169.321 199.51 169.321Z" fill="#0A376B"/>
<path d="M158.368 77.0629L144.005 105.789L132.323 82.4244L120.641 105.789L115.853 115.364L111.519 124.023L101.49 144.09L96.7024 153.665L89.4764 168.116C89.1072 168.854 88.3527 169.321 87.5271 169.321H63.6754C62.055 169.321 61.0015 167.616 61.7261 166.167L82.3395 124.939L88.9514 111.715L106.278 77.0629L128.195 33.2291C129.899 29.8289 134.746 29.8289 136.451 33.2291L158.368 77.0629Z" fill="#0A376B"/>
<path d="M144.005 105.789L132.323 82.4244L120.641 105.789L115.853 115.364L111.519 124.023C103.434 120.897 95.8633 116.743 88.9517 111.715L106.278 77.0629L128.195 33.2291C129.899 29.8289 134.747 29.8289 136.451 33.2291L158.368 77.0629L144.005 105.789Z" fill="#0F4C92"/>
<path d="M96.7024 77.0629L82.3395 105.789L70.6574 82.4244L66.9489 89.8413L27.889 167.961C27.4719 168.794 26.6206 169.321 25.6887 169.321H2.46401C0.634602 169.321 -0.555026 167.397 0.262897 165.761L52.3976 61.4838L66.5292 33.2291C68.2336 29.8289 73.0811 29.8289 74.7855 33.2291L96.7024 77.0629Z" fill="#0058BE"/>
<path d="M260.852 169.321H239.465C238.222 169.321 237.086 168.619 236.53 167.507L208.069 110.576L193.988 82.4244L177.518 115.364L171.198 128.014L163.156 144.09L151.684 167.034C150.983 168.436 149.55 169.321 147.982 169.321H116.663C115.096 169.321 113.663 168.436 112.962 167.034L106.278 153.665L119.707 126.798L120.641 124.939L121.874 127.406L132.323 148.304L141.196 130.566L144.005 124.939L167.943 77.0629L189.86 33.2291C191.564 29.8289 196.412 29.8289 198.116 33.2291L227.262 91.5286L263.787 164.572C264.879 166.753 263.292 169.321 260.852 169.321Z" fill="#0058BE"/>
<path d="M96.7028 77.063L82.3399 105.789L70.6578 82.4245L66.9493 89.8415C60.6714 81.3197 55.721 71.7701 52.3979 61.484L66.5296 33.2292C68.234 29.8291 73.0815 29.8291 74.7859 33.2292L96.7028 77.063Z" fill="#0070F3"/>
<path d="M227.262 91.5285C221.763 98.7143 215.297 105.129 208.068 110.576L193.988 82.4243L177.518 115.364L171.198 128.014C163.669 129.821 155.816 130.78 147.739 130.78C145.538 130.78 143.354 130.712 141.196 130.566L144.005 124.939L167.943 77.0629L189.86 33.2291C191.564 29.8289 196.412 29.8289 198.116 33.2291L227.262 91.5285Z" fill="#0070F3"/>
<path d="M391.34 95.6V150.2H367.34V144.6C359.54 149.6 349.94 151.4 340.94 151.4C306.14 151.4 288.94 126 289.14 100C289.34 66.2 316.34 48.6 342.54 48.6C367.34 48.6 391.34 62.6 391.34 95.6ZM313.14 99.8C313.14 114.4 323.14 129.4 343.54 129.4C359.94 129.4 368.14 114.8 368.34 100.2C368.74 80.6 355.54 71.2 341.94 71C327.74 70.8 313.14 80.8 313.14 99.8Z" fill="#0070F3"/>
<path d="M452.296 151.6C415.496 151.6 399.296 125.8 399.296 99.8C399.296 73.8 415.496 48 452.296 48C489.096 48 505.296 73.8 505.296 99.8V147.6C505.296 178.2 487.496 200 452.296 200H431.496V178H455.096C472.696 178 481.296 164.4 481.296 150.4V144.6C473.696 149 464.096 151.6 452.296 151.6ZM452.296 70C413.096 70 413.096 129.6 452.296 129.6C491.496 129.6 491.496 70 452.296 70Z" fill="#0070F3"/>
<path d="M592.354 115H617.554C612.354 135 595.954 151.6 566.554 151.6C529.754 151.6 513.554 125.8 513.554 99.8C513.554 73.8 529.754 48 566.554 48C601.354 48 617.554 73.8 617.554 99.8C617.554 102.2 617.154 104.8 616.954 107.2H537.954C540.754 119.2 550.154 129.6 566.554 129.6C579.154 129.6 587.954 123.4 592.354 115ZM539.554 87.2H591.554C587.754 77.4 579.154 70 566.554 70C552.554 70 543.554 77.6 539.554 87.2Z" fill="#0070F3"/>
<path d="M671.668 48.6C701.068 48.6 717.868 66.4 717.868 96V150H693.868V92.6C693.868 79.4 684.668 70.6 671.668 70.6C658.668 70.6 649.468 79.4 649.468 92.6V150H625.468V96C625.468 66.4 642.268 48.6 671.668 48.6Z" fill="#0070F3"/>
<path d="M778.859 50H804.059V0H828.059V150.2H804.059V144.6C796.259 149.6 786.659 151.4 777.659 151.4C742.859 151.4 725.659 126 725.859 100C726.059 72.2 743.659 50 778.859 50ZM780.259 129.4C798.659 129.4 804.059 115.2 804.059 104.4V72H776.059C740.459 72 740.259 129.4 780.259 129.4Z" fill="#0070F3"/>
<path d="M938.41 95.6V150.2H914.41V144.6C906.61 149.6 897.01 151.4 888.01 151.4C853.21 151.4 836.01 126 836.21 100C836.41 66.2 863.41 48.6 889.61 48.6C914.41 48.6 938.41 62.6 938.41 95.6ZM860.21 99.8C860.21 114.4 870.21 129.4 890.61 129.4C907.01 129.4 915.21 114.8 915.41 100.2C915.81 80.6 902.61 71.2 889.01 71C874.81 70.8 860.21 80.8 860.21 99.8Z" fill="#0070F3"/>
<path d="M946.41 138.9C946.41 131.1 951.61 126.1 959.21 126.1C967.01 126.1 972.21 131.1 972.21 138.9C972.21 146.5 967.01 151.7 959.21 151.7C951.61 151.7 946.41 146.5 946.41 138.9Z" fill="#0A376B"/>
<path d="M1020.79 48.3C1032.59 48.3 1042.19 52.1 1048.79 59.1001C1055.59 52.1 1064.99 48.3 1076.79 48.3C1102.39 48.3 1116.79 66.1001 1116.79 95.7001V149.7H1092.79V89.5C1092.79 76.3001 1084.79 70.3001 1076.79 70.3001C1068.59 70.3001 1060.59 76.3001 1060.59 89.5V149.7H1036.79V89.5C1036.79 76.3001 1028.79 70.3001 1020.79 70.3001C1012.59 70.3001 1004.59 76.3001 1004.59 89.5V149.7H980.595V95.7001C980.595 66.1001 995.195 48.3 1020.79 48.3Z" fill="#0A376B"/>
<path d="M1226.93 95.3001V149.9H1202.93V144.3C1195.13 149.3 1185.53 151.1 1176.53 151.1C1141.73 151.1 1124.53 125.7 1124.73 99.7001C1124.93 65.9 1151.93 48.3 1178.13 48.3C1202.93 48.3 1226.93 62.3001 1226.93 95.3001ZM1148.73 99.5C1148.73 114.1 1158.73 129.1 1179.13 129.1C1195.53 129.1 1203.73 114.5 1203.93 99.9001C1204.33 80.3001 1191.13 70.9 1177.53 70.7001C1163.33 70.5 1148.73 80.5 1148.73 99.5Z" fill="#0A376B"/>
<path d="M1266.89 96.9001L1231.49 49.7001H1261.49L1282.49 77.7001L1302.49 49.7001H1329.49L1296.29 96.1001L1336.49 149.7H1306.49L1280.69 115.3L1256.29 149.7H1229.29L1266.89 96.9001Z" fill="#0A376B"/>
</svg>
