<svg width="1337" height="201" viewBox="0 0 1337 201" fill="none" xmlns="http://www.w3.org/2000/svg">
<path d="M199.997 169.821H178.162C176.995 169.821 175.928 169.162 175.406 168.118L168.429 154.165L182.792 125.439L202.753 165.361C203.778 167.41 202.288 169.821 199.997 169.821Z" fill="white"/>
<path d="M158.855 77.5628L144.492 106.289L132.81 82.9242L121.127 106.289L116.34 115.864L112.006 124.523L101.977 144.59L97.1892 154.165L89.9632 168.616C89.5941 169.354 88.8395 169.821 88.0139 169.821H64.1622C62.5418 169.821 61.4884 168.116 62.2129 166.667L82.8263 125.439L89.4382 112.215L106.764 77.5628L128.681 33.729C130.386 30.3288 135.233 30.3288 136.938 33.729L158.855 77.5628Z" fill="white"/>
<path d="M144.492 106.289L132.81 82.9243L121.128 106.289L116.34 115.864L112.006 124.523C103.921 121.397 96.3501 117.243 89.4385 112.215L106.765 77.5628L128.682 33.729C130.386 30.3288 135.234 30.3288 136.938 33.729L158.855 77.5628L144.492 106.289Z" fill="white" fill-opacity="0.9"/>
<path d="M97.1892 77.5628L82.8263 106.289L71.1442 82.9242L67.4357 90.3412L28.3758 168.461C27.9587 169.294 27.1074 169.821 26.1755 169.821H2.95082C1.12142 169.821 -0.0682094 167.897 0.749713 166.261L52.8844 61.9837L67.016 33.729C68.7204 30.3288 73.568 30.3288 75.2723 33.729L97.1892 77.5628Z" fill="white" fill-opacity="0.9"/>
<path d="M261.339 169.821H239.952C238.709 169.821 237.572 169.119 237.016 168.007L208.555 111.076L194.475 82.9242L178.005 115.864L171.685 128.514L163.642 144.59L152.171 167.533C151.469 168.935 150.037 169.821 148.468 169.821H117.15C115.583 169.821 114.15 168.935 113.448 167.533L106.765 154.165L120.194 127.298L121.128 125.439L122.361 127.906L132.81 148.803L141.683 131.066L144.492 125.439L168.43 77.5628L190.347 33.729C192.051 30.3288 196.899 30.3288 198.603 33.729L227.749 92.0285L264.274 165.072C265.365 167.253 263.778 169.821 261.339 169.821Z" fill="white" fill-opacity="0.9"/>
<path d="M97.1896 77.563L82.8267 106.289L71.1446 82.9245L67.4361 90.3415C61.1582 81.8197 56.2078 72.2701 52.8848 61.9839L67.0164 33.7292C68.7208 30.3291 73.5684 30.3291 75.2727 33.7292L97.1896 77.563Z" fill="white"/>
<path d="M227.749 92.0283C222.25 99.214 215.784 105.629 208.555 111.076L194.475 82.9241L178.005 115.864L171.685 128.514C164.156 130.321 156.302 131.28 148.226 131.28C146.025 131.28 143.841 131.212 141.683 131.066L144.492 125.439L168.43 77.5626L190.347 33.7288C192.051 30.3287 196.899 30.3287 198.603 33.7288L227.749 92.0283Z" fill="white"/>
<path d="M391.827 96.1V150.7H367.827V145.1C360.027 150.1 350.427 151.9 341.427 151.9C306.627 151.9 289.427 126.5 289.627 100.5C289.827 66.7 316.827 49.1 343.027 49.1C367.827 49.1 391.827 63.1 391.827 96.1ZM313.627 100.3C313.627 114.9 323.627 129.9 344.027 129.9C360.427 129.9 368.627 115.3 368.827 100.7C369.227 81.1 356.027 71.7 342.427 71.5C328.227 71.3 313.627 81.3 313.627 100.3Z" fill="white"/>
<path d="M452.783 152.1C415.983 152.1 399.783 126.3 399.783 100.3C399.783 74.3 415.983 48.5 452.783 48.5C489.583 48.5 505.783 74.3 505.783 100.3V148.1C505.783 178.7 487.983 200.5 452.783 200.5H431.983V178.5H455.583C473.183 178.5 481.783 164.9 481.783 150.9V145.1C474.183 149.5 464.583 152.1 452.783 152.1ZM452.783 70.5C413.583 70.5 413.583 130.1 452.783 130.1C491.983 130.1 491.983 70.5 452.783 70.5Z" fill="white"/>
<path d="M592.841 115.5H618.041C612.841 135.5 596.441 152.1 567.041 152.1C530.241 152.1 514.041 126.3 514.041 100.3C514.041 74.3 530.241 48.5 567.041 48.5C601.841 48.5 618.041 74.3 618.041 100.3C618.041 102.7 617.641 105.3 617.441 107.7H538.441C541.241 119.7 550.641 130.1 567.041 130.1C579.641 130.1 588.441 123.9 592.841 115.5ZM540.041 87.7H592.041C588.241 77.9 579.641 70.5 567.041 70.5C553.041 70.5 544.041 78.1 540.041 87.7Z" fill="white"/>
<path d="M672.155 49.1C701.555 49.1 718.355 66.9 718.355 96.5V150.5H694.355V93.1C694.355 79.9 685.155 71.1 672.155 71.1C659.155 71.1 649.955 79.9 649.955 93.1V150.5H625.955V96.5C625.955 66.9 642.755 49.1 672.155 49.1Z" fill="white"/>
<path d="M779.345 50.5H804.545V0.5H828.545V150.7H804.545V145.1C796.745 150.1 787.145 151.9 778.145 151.9C743.345 151.9 726.145 126.5 726.345 100.5C726.545 72.7 744.145 50.5 779.345 50.5ZM780.745 129.9C799.145 129.9 804.545 115.7 804.545 104.9V72.5H776.545C740.945 72.5 740.745 129.9 780.745 129.9Z" fill="white"/>
<path d="M938.897 96.1V150.7H914.897V145.1C907.097 150.1 897.497 151.9 888.497 151.9C853.697 151.9 836.497 126.5 836.697 100.5C836.897 66.7 863.897 49.1 890.097 49.1C914.897 49.1 938.897 63.1 938.897 96.1ZM860.697 100.3C860.697 114.9 870.697 129.9 891.097 129.9C907.497 129.9 915.697 115.3 915.897 100.7C916.297 81.1 903.097 71.7 889.497 71.5C875.297 71.3 860.697 81.3 860.697 100.3Z" fill="white"/>
<path d="M946.897 139.4C946.897 131.6 952.097 126.6 959.697 126.6C967.497 126.6 972.697 131.6 972.697 139.4C972.697 147 967.497 152.2 959.697 152.2C952.097 152.2 946.897 147 946.897 139.4Z" fill="white" fill-opacity="0.9"/>
<path d="M1021.28 48.8C1033.08 48.8 1042.68 52.6 1049.28 59.6001C1056.08 52.6 1065.48 48.8 1077.28 48.8C1102.88 48.8 1117.28 66.6001 1117.28 96.2001V150.2H1093.28V90C1093.28 76.8001 1085.28 70.8001 1077.28 70.8001C1069.08 70.8001 1061.08 76.8001 1061.08 90V150.2H1037.28V90C1037.28 76.8001 1029.28 70.8001 1021.28 70.8001C1013.08 70.8001 1005.08 76.8001 1005.08 90V150.2H981.081V96.2001C981.081 66.6001 995.681 48.8 1021.28 48.8Z" fill="white" fill-opacity="0.9"/>
<path d="M1227.42 95.8001V150.4H1203.42V144.8C1195.62 149.8 1186.02 151.6 1177.02 151.6C1142.22 151.6 1125.02 126.2 1125.22 100.2C1125.42 66.4 1152.42 48.8 1178.62 48.8C1203.42 48.8 1227.42 62.8001 1227.42 95.8001ZM1149.22 100C1149.22 114.6 1159.22 129.6 1179.62 129.6C1196.02 129.6 1204.22 115 1204.42 100.4C1204.82 80.8001 1191.62 71.4 1178.02 71.2001C1163.82 71 1149.22 81 1149.22 100Z" fill="white" fill-opacity="0.9"/>
<path d="M1267.37 97.4001L1231.97 50.2001H1261.97L1282.97 78.2001L1302.97 50.2001H1329.97L1296.77 96.6001L1336.97 150.2H1306.97L1281.17 115.8L1256.77 150.2H1229.77L1267.37 97.4001Z" fill="white" fill-opacity="0.9"/>
</svg>
